<?xml version="1.0" encoding="utf-8"?>
<!-- Generator: Adobe Illustrator 22.0.1, SVG Export Plug-In . SVG Version: 6.00 Build 0)  -->
<svg version="1.1" xmlns="http://www.w3.org/2000/svg" xmlns:xlink="http://www.w3.org/1999/xlink" x="0px" y="0px"
	 viewBox="0 0 500 500" style="enable-background:new 0 0 500 500;" xml:space="preserve">
<style type="text/css">
	.st0{fill:#2C3E50;}
	.st1{fill:#00AFC9;}
	.st2{fill:#FFFFFF;}
</style>
<g id="Layer_1">
</g>
<g id="Layer_2">
	<g>
		<path d="M371.6,270.7c-18.6-19.8-43.5-31.5-74.6-35.2v-1.3c24.8-8.1,44.3-21.9,58.5-41.1c14.1-19.3,21.2-42,21.2-68.1
			c0-1.2,0-2.3-0.1-3.4h-0.1c-0.5-18.5-11.9-27.8-34.3-27.8H307c8.8,10.6,13.2,24.5,13.2,41.8c0,25.9-8.5,46-25.4,60.3
			c-16.9,14.2-40.2,21.4-69.7,21.4h-55.3V93.8h-18c-12.8,0-22,2.1-27.5,6.2c-5.2,3.9-8,10.5-8.5,19.9V376
			c1.3,18.5,13.6,27.7,36.9,27.7h17v-138h62c74.1,0,111.2,27.2,111.2,81.6c0,23.2-6.9,41.9-20.6,56.4h36.1c13.8,0,23.7-2.2,29.7-6.6
			c1.6-1.2,3-2.7,4.2-4.4c4.8-13.6,7.1-28.5,7.1-44.7C399.5,316.3,390.2,290.5,371.6,270.7z"/>
		<path d="M363,431.4h-56.1c-25.2,0-38.4,9.7-39.7,29.2h-21.7c-1.2-18.1-12.9-27.8-35.3-29.1h-40.4v-0.1h-19.3
			c-14.1,0-25.7-2.6-34.7-7.7v56.7h134.3c43.1,0,78.7-12.2,107-36.6c4.6-4,8.9-8.2,12.7-12.6C367.6,431.3,365.4,431.4,363,431.4z"/>
		<path d="M147.6,67.9h52c23.3,0,35.6-9.1,36.7-27.3h20.1c1.2,18.2,13.6,27.3,37.4,27.3h50.6c5.9,0,11.3,0.5,16.2,1.5
			c-5.1-7.5-11.4-14.3-18.8-20.6c-23.4-19.5-55-29.2-94.8-29.2H115.8v55.6C124.1,70.3,134.6,67.9,147.6,67.9z"/>
	</g>
</g>
<g id="Layer_3">
</g>
<g id="Layer_4">
</g>
<g id="Layer_5">
</g>
</svg>
